@startuml

class Ship{
-shipName: String
-yearBuilt: String
+getShipName(): String
+setShipName(shipName: String): void
+getYearBuilt(): String
+setYearBuilt(yearBuilt: String): void
+toString(): String
+printShip(): void
}

class CargoShip{
-cargoCapacityInTonnage: int
+getCargoCapacityInTonnage(): int
+setCargoCapacityInTonnage(cargoCapacityInTonnage : int): void
+toString(): String
}

class CruiseShip{
-maxNumberPassengers: int
+getMaxNumberPassengers(): int
+setMaxNumberPassengers(maxNumberPassengers: int): void
+toString(): String
}

Ship <|-- CargoShip
Ship <|-- CruiseShip

@enduml
